<svg xmlns="http://www.w3.org/2000/svg" viewBox="0 0 32 32">
  <!-- Tan border/background -->
  <rect width="32" height="32" rx="4" fill="#d4b896"/>
  <rect x="2" y="2" width="28" height="28" rx="3" fill="#4a6741"/>

  <!-- Parcel shapes with dark outlines -->
  <path d="M4 4 L4 10 L10 10 L12 6 L10 4 Z" fill="#5d7a52" stroke="#2d3a28" stroke-width="1"/>
  <path d="M10 4 L12 6 L10 10 L16 12 L20 8 L18 4 Z" fill="#5d7a52" stroke="#2d3a28" stroke-width="1"/>
  <path d="M18 4 L20 8 L28 6 L28 4 Z" fill="#5d7a52" stroke="#2d3a28" stroke-width="1"/>
  <path d="M4 10 L4 20 L8 18 L10 10 Z" fill="#5d7a52" stroke="#2d3a28" stroke-width="1"/>
  <path d="M10 10 L8 18 L12 22 L18 18 L16 12 Z" fill="#5b9bd5" stroke="#2d3a28" stroke-width="1"/>
  <path d="M16 12 L18 18 L28 14 L28 6 L20 8 Z" fill="#5d7a52" stroke="#2d3a28" stroke-width="1"/>
  <path d="M4 20 L4 28 L10 28 L12 22 L8 18 Z" fill="#5d7a52" stroke="#2d3a28" stroke-width="1"/>
  <path d="M10 28 L12 22 L18 18 L22 24 L18 28 Z" fill="#5b9bd5" stroke="#2d3a28" stroke-width="1"/>
  <path d="M18 28 L22 24 L28 26 L28 28 Z" fill="#5d7a52" stroke="#2d3a28" stroke-width="1"/>
  <path d="M28 14 L18 18 L22 24 L28 26 Z" fill="#5d7a52" stroke="#2d3a28" stroke-width="1"/>

  <!-- P letter on top -->
  <text x="16" y="22" text-anchor="middle" fill="#ffffff" font-family="Arial, Helvetica, sans-serif" font-weight="700" font-size="20" style="filter: drop-shadow(1px 1px 2px rgba(0,0,0,0.5))">P</text>
</svg>
